<svg xmlns="http://www.w3.org/2000/svg" width="48.889" height="43.461" viewBox="0 0 48.889 43.461">
  <path id="gem-regular" d="M39.394,0H9.516a1.011,1.011,0,0,0-.849.458L.179,12.953a1.019,1.019,0,0,0,.059,1.205L23.665,43.085a1.017,1.017,0,0,0,1.579,0L48.671,14.158a1.02,1.02,0,0,0,.059-1.205L40.251.458A1.026,1.026,0,0,0,39.394,0ZM37.755,4.074l5.373,8.149H37.323L32.934,4.074h4.821Zm-17.154,0h7.7l4.388,8.149H16.221Zm-9.447,0h4.821l-4.388,8.149H5.781ZM7.5,16.3h4.363l5.8,13.581Zm8.734,0H32.671L24.455,36.948ZM31.245,29.878,37.034,16.3H41.4Z" transform="translate(-0.01)" fill="#e5d7be"/>
</svg>
