<svg xmlns="http://www.w3.org/2000/svg" width="54.325" height="43.46" viewBox="0 0 54.325 43.46">
  <path id="shipping-fast-solid" d="M52.967,29.879H51.609V20.7a4.075,4.075,0,0,0-1.2-2.878l-8.48-8.48a4.075,4.075,0,0,0-2.878-1.2H35.311V4.074A4.075,4.075,0,0,0,31.237,0H9.507A4.075,4.075,0,0,0,5.432,4.074V8.149H.679A.681.681,0,0,0,0,8.828v1.358a.681.681,0,0,0,.679.679H23.767a.681.681,0,0,1,.679.679V12.9a.681.681,0,0,1-.679.679H3.4a.681.681,0,0,0-.679.679v1.358A.681.681,0,0,0,3.4,16.3H21.051a.681.681,0,0,1,.679.679v1.358a.681.681,0,0,1-.679.679H.679A.681.681,0,0,0,0,19.693v1.358a.681.681,0,0,0,.679.679H18.335a.681.681,0,0,1,.679.679v1.358a.681.681,0,0,1-.679.679H5.432V35.311a8.149,8.149,0,1,0,16.3,0H32.6a8.149,8.149,0,1,0,16.3,0h4.074a1.362,1.362,0,0,0,1.358-1.358V31.237A1.362,1.362,0,0,0,52.967,29.879ZM13.581,39.386a4.074,4.074,0,1,1,4.074-4.074A4.075,4.075,0,0,1,13.581,39.386Zm27.162,0a4.074,4.074,0,1,1,4.074-4.074A4.075,4.075,0,0,1,40.744,39.386ZM47.534,21.73H35.311V12.223h3.743l8.48,8.48Z" fill="#e5d7be"/>
</svg>
