<svg xmlns="http://www.w3.org/2000/svg" xmlns:xlink="http://www.w3.org/1999/xlink" width="81.112" height="104.267" viewBox="0 0 81.112 104.267">
  <defs>
    <linearGradient id="linear-gradient" x1="-0.275" y1="1.043" x2="-0.186" y2="1.094" gradientUnits="objectBoundingBox">
      <stop offset="0" stop-color="#b69e56"/>
      <stop offset="0.5" stop-color="#f0dda2"/>
      <stop offset="1" stop-color="#b69e56"/>
    </linearGradient>
  </defs>
  <path id="path32" d="M91.357-280.664v38.31a16.806,16.806,0,0,1-1.888,7.8,9.538,9.538,0,0,1-4.572,4.726l-.1.038v.848h.155a9.056,9.056,0,0,0,7.381-3.846,14.858,14.858,0,0,0,2.975-9.366v-3.9h13.072v-.871H107.5a3.34,3.34,0,0,1-2.414-.993,3.2,3.2,0,0,1-1.018-2.383v-14.25h9.39a2.524,2.524,0,0,1,1.749.793,2.491,2.491,0,0,1,.714,1.8v1h.871v-9.167h-.871v1a2.441,2.441,0,0,1-.74,1.8,2.643,2.643,0,0,1-1.82.8h-9.294v-17.01h11.672a2.46,2.46,0,0,1,1.85.765,2.534,2.534,0,0,1,.741,1.826v1h.871v-6.719l-.213.085a13.788,13.788,0,0,1-2.855.664,23.14,23.14,0,0,1-3.758.335H87.04v.963h.884A3.034,3.034,0,0,1,90.3-283.49a4.422,4.422,0,0,1,1.055,2.826Zm44.878,63.818v6.367a.718.718,0,0,1-.224.5.705.705,0,0,1-.51.207h-.15v.114h2.512l-.012-.114h-.138a.71.71,0,0,1-.522-.212.7.7,0,0,1-.212-.511v-6.836h.734c.276,0,.5,0,.689.011a1.342,1.342,0,0,1,1.021.5,2.012,2.012,0,0,1,.4,1.239v.258a1.491,1.491,0,0,1-.069.43,1.706,1.706,0,0,1-1.79,1.193l-.367.012a2.106,2.106,0,0,1-.241-.012v.115a1.038,1.038,0,0,1,.735.39l.241.281q.115.143.814,1.153t.854,1.187a4.219,4.219,0,0,0,.367.367,2.315,2.315,0,0,0,.637.367,2.351,2.351,0,0,0,.917.178h.631v-.114a1.623,1.623,0,0,1-.711-.16,1.615,1.615,0,0,1-.3-.184,3.3,3.3,0,0,1-.275-.235c-.085-.08-.226-.229-.425-.447s-.627-.8-1.285-1.738a4.05,4.05,0,0,0-.418-.488,1.556,1.556,0,0,0-.408-.315,1.747,1.747,0,0,0,1.382-.671,2.386,2.386,0,0,0,.568-1.595,2,2,0,0,0-.6-1.5,2.255,2.255,0,0,0-1.641-.579h-3.1v.115h.15a.694.694,0,0,1,.51.212.739.739,0,0,1,.224.511Zm-10.262-.069v6.424a.741.741,0,0,1-.223.511.7.7,0,0,1-.51.212h-.15v.114h4.761l.665-1.858H130.4a2.805,2.805,0,0,1-.746,1.124,1.953,1.953,0,0,1-1.3.379h-1.64v-3.43h1.95a.554.554,0,0,1,.384.172.541.541,0,0,1,.155.39v.172h.115v-1.812h-.115v.16a.544.544,0,0,1-.161.4.572.572,0,0,1-.39.172h-1.938v-3.544h2.34a.652.652,0,0,1,.454.206.65.65,0,0,1,.189.47v.206h.114v-1.445a3.157,3.157,0,0,1-.59.138,4.826,4.826,0,0,1-.774.069h-3.362l.012.115h.138a.762.762,0,0,1,.516.189A.59.59,0,0,1,125.973-216.915Zm-7.858-.448a.718.718,0,0,1,.223.5v6.367a.739.739,0,0,1-.223.511.7.7,0,0,1-.51.212h-.15v.114h2.513v-.114h-.149a.717.717,0,0,1-.516-.212.689.689,0,0,1-.218-.511v-6.367a.718.718,0,0,1,.223-.5.707.707,0,0,1,.511-.206h.149v-.115h-2.513v.115h.15A.706.706,0,0,1,118.115-217.363Zm-54.584,7.709v-7.192a.822.822,0,0,1,.1-.368.7.7,0,0,1,.631-.355h.149v-.115H61.9v.115h.149a.694.694,0,0,1,.511.212.741.741,0,0,1,.224.511v7.158a2.63,2.63,0,0,1-.39,1.382,1.832,1.832,0,0,1-.952.843v.1a1.924,1.924,0,0,0,1.486-.665A2.338,2.338,0,0,0,63.531-209.654Zm12.8-2.833v-4.542a.525.525,0,0,1,.189-.384.616.616,0,0,1,.419-.155h.183v-.115H75v.115h.184a.61.61,0,0,1,.424.155.549.549,0,0,1,.184.4v4.531a2.643,2.643,0,0,1-.7,1.91,2.416,2.416,0,0,1-1.824.728,2.264,2.264,0,0,1-1.8-.769,2.958,2.958,0,0,1-.671-2.019v-4.382a.546.546,0,0,1,.183-.4.611.611,0,0,1,.425-.155h.183v-.115H69.262v.115h.184a.685.685,0,0,1,.31.068.536.536,0,0,1,.3.505v4.52a2.822,2.822,0,0,0,.877,2.162,3.218,3.218,0,0,0,2.288.82,3.1,3.1,0,0,0,2.26-.826,2.888,2.888,0,0,0,.849-2.168Zm13.508,1.7,1.9-6.068a.984.984,0,0,1,.419-.533,1.127,1.127,0,0,1,.59-.177h.092v-.115h-2.26v.115h.1a.422.422,0,0,1,.356.149.478.478,0,0,1,.114.281.975.975,0,0,1-.035.258l-1.537,5.368-2.26-6.344-.1-.011-2.134,6.584-1.744-5.587a.88.88,0,0,1-.034-.252.487.487,0,0,1,.12-.293.429.429,0,0,1,.361-.155h.1v-.115H81.348v.115h.091a1.1,1.1,0,0,1,.586.177,1.051,1.051,0,0,1,.424.522l2.6,7.353h.1a5.1,5.1,0,0,1,.241-1.274l1.744-5.288,2.34,6.562h.1A4.971,4.971,0,0,1,89.836-210.79Zm8.954-2.65h1.95a.555.555,0,0,1,.385.172.542.542,0,0,1,.155.39v.172h.115v-1.812h-.115v.16a.546.546,0,0,1-.161.4.574.574,0,0,1-.39.172H98.79v-3.544h2.34a.651.651,0,0,1,.453.206.65.65,0,0,1,.189.47v.206h.115v-1.445a3.157,3.157,0,0,1-.59.138,4.837,4.837,0,0,1-.774.069H97.161l.012.115h.138a.761.761,0,0,1,.516.189.591.591,0,0,1,.218.464v6.424a.741.741,0,0,1-.223.511.7.7,0,0,1-.51.212h-.15v.114h4.76l.666-1.858h-.115a2.8,2.8,0,0,1-.745,1.124,1.957,1.957,0,0,1-1.3.379H98.79Zm10.262,3.43v-6.837a.7.7,0,0,1,.1-.368.7.7,0,0,1,.63-.355h.149v-.115h-2.512v.115h.149a.7.7,0,0,1,.511.212.741.741,0,0,1,.223.511v6.355a.744.744,0,0,1-.223.511.7.7,0,0,1-.511.212h-.149v.114h4.76l.666-1.858h-.115a2.8,2.8,0,0,1-.746,1.124,1.955,1.955,0,0,1-1.3.379Zm12.655,5.661a23.456,23.456,0,0,1,.215,3.352v15.959a1.788,1.788,0,0,1-.554,1.337,1.828,1.828,0,0,1-1.322.539h-.584v.307H125.8v-.307h-.584a1.828,1.828,0,0,1-1.323-.539,1.752,1.752,0,0,1-.554-1.306V-200.32l16.759,17.9h.277l-.061-.553a25.233,25.233,0,0,1-.216-3.383v-15.867a1.863,1.863,0,0,1,.584-1.306,1.829,1.829,0,0,1,1.322-.539h.553v-.308h-6.334v.308h.584a1.832,1.832,0,0,1,1.323.539,1.9,1.9,0,0,1,.585,1.338v15.252l-16.76-17.9h-.307Zm-15.226.831a1.922,1.922,0,0,1,.6,1.353V-185.1a1.976,1.976,0,0,1-.6,1.368,1.863,1.863,0,0,1-1.368.569h-.4v.307h6.735v-.307h-.4a1.913,1.913,0,0,1-1.383-.569,1.839,1.839,0,0,1-.585-1.368v-17.067a1.922,1.922,0,0,1,.6-1.353,1.889,1.889,0,0,1,1.368-.554h.4v-.308h-6.735v.308h.4a1.889,1.889,0,0,1,1.368.554ZM65.81-193.924v-9.5H72.3a1.435,1.435,0,0,1,1.076.446,1.476,1.476,0,0,1,.43,1.061v.461h.308v-3.475a10.193,10.193,0,0,1-1.322.338,11.343,11.343,0,0,1-2.338.215H61.443l.031.308h.369a2.06,2.06,0,0,1,1.368.508,1.572,1.572,0,0,1,.6,1.245v17.22a1.976,1.976,0,0,1-.6,1.368,1.864,1.864,0,0,1-1.368.569h-.4v.307h6.734v-.307h-.4a1.916,1.916,0,0,1-1.384-.569,1.84,1.84,0,0,1-.584-1.368V-193h5.143a1.48,1.48,0,0,1,1.03.461,1.45,1.45,0,0,1,.416,1.045v.461h.307v-4.859H72.4v.431a1.46,1.46,0,0,1-.431,1.076,1.536,1.536,0,0,1-1.045.461H65.81Zm25.661-10.455h-9.01l.031.308h.369a2.044,2.044,0,0,1,1.383.508,1.587,1.587,0,0,1,.584,1.245v17.22a1.977,1.977,0,0,1-.6,1.368,1.865,1.865,0,0,1-1.368.569h-.4v.307H95.222l1.784-4.982H96.7a7.525,7.525,0,0,1-2,3.013,5.245,5.245,0,0,1-3.475,1.015h-4.4V-193h5.227a1.483,1.483,0,0,1,1.03.461,1.451,1.451,0,0,1,.415,1.045v.461h.307v-4.859H93.5v.431a1.457,1.457,0,0,1-.431,1.076,1.537,1.537,0,0,1-1.045.461h-5.2v-9.5H93.1a1.749,1.749,0,0,1,1.215.554,1.746,1.746,0,0,1,.507,1.261v.554h.308v-3.875a8.549,8.549,0,0,1-1.584.369A12.893,12.893,0,0,1,91.471-204.379Zm8.642-60.178V-250.3a3.433,3.433,0,0,1-1.046,2.373,3.247,3.247,0,0,1-2.385.991H95.31v-17.625Zm0-17.158v15.166h-4.8v-14.112c-.154-4.543,4.245-4.9,4.8-1.1l0,.047" transform="translate(-61.443 286.69)" fill="url(#linear-gradient)"/>
</svg>
