<?xml version="1.0" encoding="utf-8"?>
<!-- Generator: Adobe Illustrator 24.2.3, SVG Export Plug-In . SVG Version: 6.00 Build 0)  -->
<svg version="1.1" id="Layer_1" xmlns:serif="http://www.serif.com/"
	 xmlns="http://www.w3.org/2000/svg" xmlns:xlink="http://www.w3.org/1999/xlink" x="0px" y="0px" viewBox="0 0 1920 1080"
	 style="enable-background:new 0 0 1920 1080;" xml:space="preserve">
<style type="text/css">
	.st0{fill:#B69E56;}
</style>
<path class="st0" d="M960,79.2c-125.1,0-140.8,0.5-190,2.8c-49,2.2-82.5,10-111.9,21.4c-30.3,11.8-56,27.5-81.6,53.1
	s-41.4,51.3-53.1,81.6C512,267.5,504.2,301,502,350c-2.2,49.1-2.8,64.8-2.8,190c0,125.1,0.5,140.8,2.8,190
	c2.2,49,10,82.5,21.4,111.9c11.8,30.3,27.5,56,53.1,81.6c25.6,25.6,51.3,41.4,81.6,53.1C687.5,988,721,995.8,770,998
	c49.1,2.2,64.8,2.8,190,2.8c125.1,0,140.8-0.5,190-2.8c49-2.2,82.5-10,111.9-21.4c30.3-11.8,56-27.5,81.6-53.1
	c25.6-25.6,41.4-51.3,53.1-81.6c11.4-29.3,19.2-62.8,21.4-111.9c2.2-49.1,2.8-64.8,2.8-190c0-125.1-0.5-140.8-2.8-190
	c-2.2-49-10-82.5-21.4-111.9c-11.8-30.3-27.5-56-53.1-81.6c-25.6-25.6-51.3-41.4-81.6-53.1C1232.5,92,1199,84.2,1150,82
	C1100.8,79.7,1085.1,79.2,960,79.2z M960,162.2c123,0,137.6,0.5,186.2,2.7c44.9,2.1,69.3,9.6,85.6,15.9c21.5,8.4,36.9,18.3,53,34.5
	c16.1,16.1,26.1,31.5,34.5,53c6.3,16.2,13.8,40.6,15.9,85.6c2.2,48.6,2.7,63.2,2.7,186.2c0,123-0.5,137.6-2.7,186.2
	c-2,44.9-9.6,69.3-15.9,85.6c-8.4,21.5-18.3,36.9-34.5,53c-16.1,16.1-31.5,26.1-53,34.5c-16.2,6.3-40.6,13.8-85.6,15.9
	c-48.6,2.2-63.2,2.7-186.2,2.7c-123,0-137.6-0.5-186.2-2.7c-44.9-2-69.3-9.6-85.6-15.9c-21.5-8.4-36.9-18.3-53-34.5
	c-16.1-16.1-26.1-31.5-34.5-53c-6.3-16.2-13.8-40.6-15.9-85.6c-2.2-48.6-2.7-63.2-2.7-186.2c0-123,0.5-137.6,2.7-186.2
	c2.1-44.9,9.6-69.3,15.9-85.6c8.4-21.5,18.3-36.9,34.5-53c16.1-16.1,31.5-26.1,53-34.5c16.2-6.3,40.6-13.8,85.6-15.9
	C822.4,162.7,837,162.2,960,162.2z"/>
<path class="st0" d="M960,693.6c-84.8,0-153.6-68.8-153.6-153.6c0-84.8,68.8-153.6,153.6-153.6c84.8,0,153.6,68.8,153.6,153.6
	C1113.6,624.8,1044.8,693.6,960,693.6z M960,303.4c-130.7,0-236.6,105.9-236.6,236.6c0,130.7,105.9,236.6,236.6,236.6
	c130.7,0,236.6-105.9,236.6-236.6C1196.6,409.3,1090.7,303.4,960,303.4z"/>
<path class="st0" d="M1261.3,294c0,30.5-24.8,55.3-55.3,55.3c-30.5,0-55.3-24.8-55.3-55.3s24.8-55.3,55.3-55.3
	C1236.5,238.7,1261.3,263.5,1261.3,294z"/>
</svg>
