<svg xmlns="http://www.w3.org/2000/svg" width="57.947" height="43.46" viewBox="0 0 57.947 43.46">
  <path id="concierge-bell-solid_2_" data-name="concierge-bell-solid (2)" d="M32.6,71.531v-2.1h1.811a1.81,1.81,0,0,0,1.811-1.811V65.811A1.81,1.81,0,0,0,34.406,64H23.541a1.81,1.81,0,0,0-1.811,1.811v1.811a1.81,1.81,0,0,0,1.811,1.811h1.811v2.1A25.336,25.336,0,0,0,3.622,96.6h50.7A25.336,25.336,0,0,0,32.6,71.531Zm23.541,28.686H1.811A1.81,1.81,0,0,0,0,102.027v3.622a1.81,1.81,0,0,0,1.811,1.811H56.136a1.81,1.81,0,0,0,1.811-1.811v-3.622A1.81,1.81,0,0,0,56.136,100.217Z" transform="translate(0 -64)" fill="#e5d7be"/>
</svg>
